<svg xmlns="http://www.w3.org/2000/svg" viewBox="0 0 256 256">
  <defs>
    <linearGradient id="grad" x1="0%" y1="0%" x2="100%" y2="100%">
      <stop offset="0%" style="stop-color:#00d4ff;stop-opacity:1" />
      <stop offset="100%" style="stop-color:#0066ff;stop-opacity:1" />
    </linearGradient>
  </defs>
  <rect width="256" height="256" fill="#0a0e1a"/>
  <path d="M64 100c0-8 6-14 14-14h28c16 0 28 12 28 28 0 10-5 18-13 23 10 5 17 15 17 27 0 18-14 32-32 32H78c-8 0-14-6-14-14V100zm28 36h14c6 0 10-4 10-10s-4-10-10-10H92v20zm0 46h20c8 0 14-6 14-14s-6-14-14-14H92v28z" fill="url(#grad)"/>
  <path d="M158 100c0-8 6-14 14-14h28c18 0 32 14 32 32v8c0 8-6 14-14 14s-14-6-14-14v-8c0-2-2-4-4-4h-28c-8 0-14-6-14-14zm14 96c-8 0-14-6-14-14v-46c0-8 6-14 14-14h42c8 0 14 6 14 14s-6 14-14 14h-28v32c0 8-6 14-14 14z" fill="url(#grad)"/>
</svg>